<svg width="409" height="600" viewBox="0 0 409 600" fill="none" xmlns="http://www.w3.org/2000/svg">
<mask id="mask0_853_5081" style="mask-type:alpha" maskUnits="userSpaceOnUse" x="0" y="0" width="409" height="600">
<rect width="409" height="600" fill="#C4C4C4"/>
</mask>
<g mask="url(#mask0_853_5081)">
<path d="M-20.9356 433.11C-18.1822 430.79 -15.1346 429.789 -11.8133 430.097C-8.49191 430.404 -5.67466 431.947 -3.37164 434.721C-1.06863 437.495 -0.0591694 440.556 -0.343304 443.904C-0.627439 447.252 -2.15131 450.084 -4.90717 452.396C-7.08388 454.226 -9.53814 455.143 -12.2801 455.141L-11.5843 457.146L-15.2207 460.197L-35.8853 435.321L-30.9734 431.194L-24.6779 438.777C-24.0378 436.566 -22.7979 434.671 -20.9356 433.11ZM-13.901 449.613C-12.1712 449.77 -10.5946 449.249 -9.17108 448.048C-7.74759 446.848 -6.96572 445.388 -6.82018 443.657C-6.67465 441.926 -7.19277 440.353 -8.377 438.929C-9.16649 437.98 -10.0833 437.302 -11.1324 436.879C-12.1891 436.458 -13.2716 436.363 -14.387 436.568C-15.5078 436.783 -16.533 437.277 -17.4579 438.064C-18.3852 438.843 -19.0535 439.771 -19.4652 440.842C-19.8692 441.91 -19.9662 443.009 -19.7587 444.133C-19.5511 445.256 -19.0475 446.295 -18.258 447.245C-17.084 448.663 -15.6308 449.455 -13.901 449.613Z" fill="white" fill-opacity="0.2"/>
<path d="M19.238 418.929C19.5552 419.453 19.8436 420.021 20.1059 420.614L4.81569 429.939C5.87523 431.179 7.06342 431.909 8.37251 432.13C9.67917 432.344 11.012 432.045 12.366 431.218C13.2928 430.653 14.0016 429.935 14.5025 429.068C15.0035 428.201 15.2465 427.27 15.2263 426.284L20.9997 422.761C21.5903 425.431 21.373 427.961 20.3682 430.363C19.3556 432.767 17.6816 434.686 15.3284 436.118C12.3278 437.949 9.20499 438.443 5.95997 437.598C2.71738 436.762 0.171855 434.817 -1.66398 431.778C-2.39075 430.57 -2.9194 429.317 -3.2548 428.003C-3.58775 426.697 -3.69531 425.405 -3.59298 424.134C-3.48821 422.87 -3.20731 421.653 -2.73764 420.497C-2.27815 419.335 -1.61484 418.255 -0.750181 417.248C0.114477 416.241 1.14103 415.372 2.33963 414.645C4.36416 413.41 6.46628 412.776 8.65861 412.754C10.8485 412.724 12.8679 413.261 14.7191 414.373C16.5577 415.471 18.0639 416.998 19.238 418.929ZM5.15439 419.317C3.9273 420.062 3.10171 421.031 2.6776 422.224C2.25105 423.41 2.24838 424.701 2.68262 426.087L12.4635 420.125C11.7155 419.445 10.9308 418.974 10.1124 418.692C9.29634 418.418 8.46198 418.33 7.61945 418.432C6.77692 418.534 5.95183 418.828 5.15439 419.317Z" fill="white" fill-opacity="0.2"/>
<path d="M36.031 397.231L40.44 395.387L49.5394 417.389L44.8907 419.334L43.598 417.584C42.3255 420.16 40.3197 422.017 37.5961 423.15C34.3053 424.53 31.1206 424.566 28.0343 423.261C24.9479 421.955 22.7123 419.628 21.3325 416.295C19.9599 412.985 19.9065 409.773 21.1646 406.662C22.4227 403.55 24.6983 401.308 27.9914 399.936C30.7667 398.779 33.5225 398.672 36.2637 399.632L36.031 397.231ZM30.7749 417.404C32.3664 418.075 34.0126 418.053 35.7312 417.34C37.4398 416.622 38.6282 415.459 39.294 413.845C39.9598 412.23 39.9278 410.553 39.2058 408.811C38.4863 407.076 37.3283 405.866 35.7214 405.199C34.1144 404.532 32.4682 404.554 30.765 405.263C29.6337 405.739 28.7216 406.429 28.039 407.338C27.3564 408.247 26.9434 409.259 26.8127 410.388C26.6795 411.509 26.8481 412.646 27.3136 413.784C28.0356 415.527 29.1834 416.732 30.7749 417.404Z" fill="white" fill-opacity="0.2"/>
<path d="M63.3771 406.622L66.2209 405.881L67.7506 411.328L63.3133 412.482C61.6174 412.926 60.0557 412.984 58.6228 412.667C57.1899 412.349 55.9769 411.67 54.9734 410.625C53.9699 409.579 53.2376 408.224 52.7638 406.547L50.0652 396.902L45.8427 397.999L45.4749 396.703L52.0341 384.786L53.1978 384.485L54.853 390.4L61.2744 388.731L62.6459 393.635L56.3528 395.273L58.8294 404.126C59.138 405.212 59.6814 405.984 60.4703 406.42C61.2568 406.849 62.2292 406.917 63.3771 406.622Z" fill="white" fill-opacity="0.2"/>
<path d="M80.1937 383.512C82.8672 383.138 85.1064 383.734 86.9112 385.302C88.7161 386.871 89.8416 389.146 90.2645 392.135L92.2952 406.356L85.9361 407.243L84.0412 394.019C83.5392 390.509 81.9243 388.95 79.1917 389.326C78.1151 389.475 77.2147 389.858 76.4856 390.461C75.7565 391.064 75.2504 391.862 74.9649 392.847C74.6717 393.834 74.6232 394.949 74.8038 396.197L76.5687 408.549L70.2096 409.435L66.8507 385.95L71.2035 385.34L72.8819 388.074C73.2437 387.466 73.6714 386.906 74.1779 386.407C74.6844 385.907 75.2492 385.458 75.8723 385.059C76.4954 384.659 77.1662 384.33 77.8848 384.072C78.6135 383.818 79.3773 383.622 80.1937 383.512Z" fill="white" fill-opacity="0.2"/>
<path d="M119.361 392.947C119.358 393.563 119.31 394.194 119.223 394.837L101.31 394.684C101.561 396.298 102.197 397.543 103.201 398.416C104.205 399.289 105.5 399.737 107.082 399.744C108.164 399.755 109.142 399.516 110.029 399.041C110.908 398.568 111.6 397.906 112.099 397.057L118.858 397.114C117.969 399.693 116.467 401.729 114.351 403.24C112.235 404.751 109.8 405.49 107.05 405.465C103.54 405.43 100.619 404.21 98.2865 401.78C95.9562 399.357 94.7989 396.37 94.8223 392.815C94.8295 391.402 95.0356 390.055 95.4304 388.768C95.833 387.479 96.4052 386.325 97.1625 385.3C97.912 384.279 98.7901 383.396 99.789 382.655C100.788 381.913 101.917 381.345 103.177 380.949C104.435 380.546 105.768 380.358 107.173 380.37C109.539 380.387 111.673 380.965 113.555 382.092C115.437 383.22 116.876 384.751 117.874 386.66C118.881 388.601 119.374 390.686 119.361 392.947ZM107.15 385.848C105.719 385.836 104.508 386.225 103.522 387.005C102.537 387.793 101.869 388.883 101.511 390.287L112.969 390.381C112.682 389.411 112.264 388.593 111.708 387.93C111.152 387.267 110.491 386.756 109.715 386.393C108.941 386.038 108.086 385.853 107.15 385.848Z" fill="white" fill-opacity="0.2"/>
<path d="M130.651 405.931C128.702 405.661 127.028 405.076 125.626 404.166C124.224 403.257 123.191 402.113 122.54 400.722C121.881 399.333 121.664 397.806 121.893 396.157L128.088 397.019C128.021 397.722 128.127 398.328 128.396 398.858C128.663 399.38 129.075 399.797 129.628 400.094C130.181 400.39 130.833 400.595 131.59 400.7C132.202 400.782 132.763 400.777 133.281 400.666C133.802 400.563 134.245 400.348 134.612 400.029C134.98 399.709 135.202 399.307 135.266 398.81C135.363 398.089 135.056 397.494 134.351 397.041C133.639 396.589 132.549 396.128 131.071 395.652C130.132 395.374 129.355 395.122 128.752 394.884C128.144 394.656 127.435 394.298 126.636 393.814C125.829 393.333 125.199 392.821 124.75 392.288C124.301 391.755 123.945 391.056 123.681 390.192C123.409 389.33 123.35 388.359 123.496 387.282C123.798 385.081 124.912 383.403 126.84 382.255C128.775 381.105 131.158 380.727 133.99 381.122C136.821 381.516 139.009 382.547 140.543 384.225C142.076 385.904 142.684 387.914 142.369 390.264L136.307 389.42C136.558 387.568 135.506 386.472 133.147 386.143C132.159 386.008 131.364 386.103 130.752 386.431C130.14 386.758 129.793 387.276 129.705 387.969C129.669 388.262 129.706 388.54 129.833 388.807C129.959 389.075 130.123 389.297 130.323 389.473C130.524 389.649 130.844 389.83 131.291 390.032C131.735 390.226 132.116 390.38 132.428 390.478C132.74 390.577 133.207 390.738 133.831 390.935C134.368 391.126 134.751 391.262 134.979 391.336C135.206 391.41 135.59 391.546 136.127 391.736C136.663 391.927 137.064 392.091 137.321 392.233C137.587 392.372 137.943 392.559 138.397 392.809C138.856 393.05 139.191 393.277 139.416 393.505C139.639 393.726 139.912 393.999 140.239 394.306C140.566 394.613 140.807 394.947 140.976 395.295C141.138 395.645 141.291 396.024 141.444 396.428C141.597 396.832 141.672 397.286 141.679 397.796C141.684 398.297 141.655 398.827 141.575 399.38C141.251 401.784 140.089 403.58 138.089 404.767C136.091 405.963 133.615 406.344 130.651 405.931Z" fill="white" fill-opacity="0.2"/>
<path d="M151.937 409.072C150.034 408.567 148.45 407.774 147.162 406.709C145.883 405.641 144.999 404.373 144.514 402.911C144.029 401.45 144.004 399.913 144.423 398.297L150.457 399.907C150.307 400.594 150.333 401.218 150.54 401.767C150.74 402.32 151.097 402.78 151.612 403.148C152.125 403.508 152.75 403.79 153.483 403.987C154.077 404.143 154.641 404.205 155.163 404.162C155.684 404.118 156.154 403.962 156.562 403.689C156.969 403.417 157.234 403.044 157.355 402.562C157.541 401.855 157.309 401.228 156.666 400.695C156.02 400.155 154.992 399.563 153.582 398.92C152.684 398.527 151.948 398.186 151.375 397.879C150.802 397.571 150.147 397.136 149.403 396.558C148.66 395.98 148.097 395.405 147.724 394.814C147.343 394.224 147.077 393.488 146.917 392.599C146.756 391.711 146.815 390.736 147.089 389.686C147.655 387.537 148.968 386.008 151.021 385.101C153.074 384.194 155.489 384.112 158.255 384.851C161.022 385.589 163.06 386.88 164.384 388.736C165.705 390.585 166.06 392.659 165.464 394.953L159.552 393.381C160.028 391.568 159.12 390.358 156.819 389.747C155.853 389.486 155.054 389.489 154.411 389.741C153.767 389.994 153.362 390.462 153.184 391.141C153.113 391.428 153.116 391.709 153.212 391.986C153.3 392.266 153.437 392.513 153.617 392.704C153.791 392.906 154.09 393.128 154.507 393.373C154.924 393.618 155.283 393.813 155.584 393.958C155.882 394.095 156.323 394.307 156.922 394.589C157.429 394.848 157.791 395.025 158.01 395.127C158.229 395.229 158.583 395.409 159.098 395.666C159.604 395.926 159.986 396.139 160.227 396.311C160.469 396.483 160.806 396.719 161.23 397.013C161.655 397.307 161.961 397.578 162.157 397.824C162.346 398.072 162.593 398.37 162.875 398.726C163.157 399.081 163.369 399.433 163.484 399.798C163.599 400.163 163.714 400.554 163.812 400.976C163.911 401.397 163.937 401.859 163.88 402.354C163.826 402.858 163.725 403.376 163.588 403.914C162.976 406.265 161.604 407.907 159.474 408.838C157.333 409.764 154.823 409.841 151.937 409.072Z" fill="white" fill-opacity="0.2"/>
<path d="M178.076 405.161L180.744 399.56L201.217 409.531L198.549 415.132L178.076 405.161Z" fill="white" fill-opacity="0.2"/>
<path d="M223.642 438.801C220.852 439.106 218.12 438.237 215.458 436.183C212.795 434.128 211.238 431.701 210.809 428.892C210.372 426.087 211.122 423.412 213.041 420.867L221.3 409.952L226.397 413.875L218.588 424.195C217.562 425.553 217.098 426.863 217.188 428.126C217.28 429.398 217.908 430.484 219.082 431.389C220.257 432.294 221.463 432.625 222.699 432.373C223.938 432.129 225.07 431.327 226.089 429.972L233.898 419.652L238.995 423.575L230.735 434.49C228.798 437.059 226.431 438.497 223.642 438.801Z" fill="white" fill-opacity="0.2"/>
<path d="M255.388 436.652C257.834 439.275 259.023 442.281 258.934 445.66C258.853 449.036 257.518 451.984 254.939 454.485C252.359 456.986 249.401 458.203 246.067 458.119C242.733 458.035 239.845 456.69 237.413 454.088C235.748 452.301 234.724 450.241 234.342 447.909L227.288 454.754L222.889 450.04L246.027 427.592L248.949 430.718L248.157 433.02C250.943 433.27 253.359 434.481 255.388 436.652ZM239.536 444.799C239.484 446.547 240.101 448.108 241.373 449.468C242.647 450.837 244.147 451.539 245.876 451.591C247.603 451.636 249.132 451.011 250.479 449.713C251.362 448.854 251.964 447.879 252.301 446.781C252.627 445.678 252.658 444.575 252.386 443.473C252.111 442.363 251.557 441.36 250.713 440.457C249.869 439.554 248.908 438.93 247.823 438.587C246.738 438.243 245.658 438.217 244.575 438.51C243.493 438.803 242.507 439.384 241.622 440.234C240.283 441.53 239.588 443.052 239.536 444.799Z" fill="white" fill-opacity="0.2"/>
<path d="M255.862 458.361L260.948 454.821L269.402 466.48L264.317 470.02L255.862 458.361Z" fill="white" fill-opacity="0.2"/>
<path d="M270.062 485.491L271.429 488.089L266.468 490.829L264.336 486.773C263.518 485.227 263.107 483.716 263.096 482.249C263.078 480.784 263.469 479.448 264.257 478.227C265.045 477.006 266.205 475.985 267.731 475.141L276.506 470.288L274.477 466.432L275.657 465.777L288.743 469.411L289.305 470.477L283.919 473.448L286.999 479.312L282.535 481.78L279.517 476.035L271.46 480.485C270.468 481.037 269.841 481.739 269.593 482.606C269.364 483.484 269.513 484.439 270.062 485.491Z" fill="white" fill-opacity="0.2"/>
<path d="M269.898 502.164C269.596 499.738 269.865 497.483 270.698 495.401C271.529 493.311 272.828 491.605 274.588 490.283C276.348 488.962 278.389 488.158 280.712 487.874C284.273 487.448 287.378 488.303 290.019 490.439C292.662 492.584 294.211 495.49 294.663 499.177C295.112 502.83 294.308 506.006 292.261 508.716C290.215 511.427 287.403 512.993 283.844 513.426C280.308 513.852 277.209 512.988 274.555 510.838C271.889 508.675 270.338 505.787 269.898 502.164ZM275.849 501.45C276.079 503.292 276.858 504.723 278.206 505.744C279.555 506.765 281.166 507.165 283.05 506.941C284.933 506.718 286.405 505.94 287.464 504.633C288.521 503.318 288.941 501.733 288.707 499.876C288.483 498.023 287.69 496.58 286.35 495.556C285.002 494.535 283.39 494.135 281.506 494.359C280.581 494.47 279.728 494.729 278.955 495.134C278.182 495.539 277.553 496.053 277.069 496.675C276.584 497.297 276.232 498.014 276.011 498.827C275.791 499.64 275.733 500.512 275.849 501.45Z" fill="white" fill-opacity="0.2"/>
<path d="M278.759 519.316L283.04 523.806L272.844 533.969L268.563 529.479L278.759 519.316Z" fill="white" fill-opacity="0.2"/>
<path d="M247.422 558.094L241.014 558.586L238.411 526.409L243.149 526.046L244.049 527.956C246.008 526.015 248.408 524.933 251.249 524.71C253.617 524.525 255.795 524.902 257.783 525.833C259.77 526.764 261.373 528.148 262.596 529.975C263.819 531.801 264.523 533.901 264.714 536.262C264.906 538.624 264.545 540.8 263.627 542.775C262.711 544.758 261.351 546.359 259.533 547.584C257.722 548.806 255.629 549.511 253.261 549.696C250.86 549.883 248.649 549.405 246.614 548.267L247.422 558.094ZM256.018 532.276C254.691 531.147 253.098 530.656 251.242 530.792C249.39 530.936 247.895 531.675 246.766 533.008C245.637 534.342 245.144 535.937 245.294 537.791C245.445 539.645 246.179 541.138 247.506 542.268C248.832 543.397 250.426 543.888 252.281 543.752C254.142 543.606 255.631 542.876 256.765 541.559C257.899 540.241 258.382 538.641 258.237 536.776C258.081 534.906 257.344 533.405 256.018 532.276Z" fill="white" fill-opacity="0.2"/>
<path d="M210.88 545.676L206.217 544.602L211.432 521.406L216.353 522.545L216.4 524.729C218.924 523.387 221.624 523.042 224.506 523.71C227.982 524.516 230.609 526.35 232.379 529.216C234.149 532.081 234.639 535.273 233.85 538.799C233.067 542.288 231.264 544.934 228.446 546.72C225.628 548.505 222.482 548.999 218.998 548.195C216.061 547.511 213.752 545.987 212.066 543.609L210.88 545.676ZM226.77 532.358C225.859 530.883 224.493 529.935 222.681 529.512C220.869 529.09 219.228 529.35 217.761 530.273C216.294 531.197 215.352 532.58 214.941 534.412C214.53 536.244 214.785 537.901 215.715 539.38C216.644 540.859 218.002 541.809 219.804 542.226C221.001 542.5 222.138 542.475 223.22 542.135C224.301 541.795 225.222 541.214 225.978 540.377C226.735 539.54 227.248 538.523 227.518 537.326C227.937 535.491 227.684 533.842 226.77 532.358Z" fill="white" fill-opacity="0.2"/>
<path d="M194.806 520.906L192.179 519.646L194.642 514.519L198.748 516.485C200.319 517.239 201.533 518.189 202.396 519.35C203.26 520.511 203.721 521.805 203.783 523.239C203.846 524.674 203.497 526.186 202.743 527.763L198.382 536.838L202.286 538.705L201.7 539.925L188.871 544.799L187.794 544.283L190.467 538.716L184.529 535.873L186.744 531.257L192.562 534.044L196.563 525.718C197.056 524.689 197.153 523.758 196.854 522.923C196.545 522.084 195.87 521.409 194.806 520.906Z" fill="white" fill-opacity="0.2"/>
<path d="M166.656 509.82C167.031 509.335 167.453 508.869 167.914 508.416L182.051 519.521C182.825 518.088 183.082 516.716 182.816 515.405C182.55 514.095 181.784 512.95 180.544 511.971C179.689 511.299 178.768 510.879 177.784 510.718C176.8 510.557 175.845 510.652 174.932 511.016L169.597 506.826C171.863 505.335 174.293 504.639 176.89 504.747C179.487 504.854 181.866 505.757 184.037 507.46C186.808 509.643 188.386 512.405 188.763 515.751C189.14 519.096 188.253 522.172 186.082 524.968C185.224 526.076 184.245 527.016 183.146 527.789C182.047 528.563 180.89 529.123 179.675 529.471C178.46 529.819 177.228 529.975 175.99 529.954C174.75 529.925 173.504 529.684 172.266 529.226C171.02 528.771 169.844 528.106 168.738 527.23C166.868 525.757 165.528 523.997 164.717 521.951C163.907 519.905 163.684 517.811 164.054 515.685C164.406 513.556 165.277 511.597 166.656 509.82ZM172.059 522.928C173.195 523.819 174.385 524.258 175.643 524.238C176.902 524.219 178.101 523.765 179.232 522.879L170.192 515.774C169.834 516.716 169.668 517.623 169.711 518.491C169.745 519.361 169.963 520.165 170.364 520.929C170.751 521.679 171.317 522.348 172.059 522.928Z" fill="white" fill-opacity="0.2"/>
<path d="M144.023 504.723C142.319 502.627 141.662 500.398 142.059 498.036C142.456 495.674 143.819 493.547 146.143 491.64L157.228 482.561L161.295 487.556L150.993 495.987C148.263 498.227 147.761 500.417 149.505 502.56C150.194 503.403 150.981 503.985 151.876 504.294C152.775 504.61 153.716 504.631 154.705 504.372C155.702 504.111 156.683 503.581 157.651 502.791L167.275 494.905L171.342 499.9L153.037 514.889L150.253 511.465L151.72 508.613C151.017 508.62 150.313 508.542 149.628 508.364C148.943 508.186 148.262 507.938 147.595 507.601C146.931 507.271 146.301 506.862 145.7 506.384C145.105 505.921 144.547 505.362 144.023 504.723Z" fill="white" fill-opacity="0.2"/>
<path d="M133.117 465.145C133.667 464.869 134.243 464.62 134.853 464.402L143.006 480.481C144.315 479.513 145.122 478.377 145.43 477.083C145.735 475.78 145.531 474.424 144.809 473.009C144.317 472.034 143.653 471.267 142.83 470.696C141.998 470.128 141.102 469.811 140.116 469.753L137.039 463.688C139.72 463.307 142.224 463.717 144.533 464.915C146.843 466.114 148.622 467.95 149.879 470.421C151.475 473.572 151.747 476.746 150.684 479.939C149.621 483.131 147.521 485.529 144.378 487.142C143.135 487.781 141.845 488.213 140.527 488.448C139.207 488.675 137.923 488.694 136.671 488.489C135.427 488.282 134.239 487.902 133.126 487.354C132.01 486.798 130.987 486.051 130.047 485.106C129.106 484.161 128.322 483.065 127.681 481.803C126.601 479.679 126.126 477.51 126.253 475.313C126.381 473.117 127.058 471.133 128.285 469.361C129.512 467.588 131.121 466.167 133.117 465.145ZM132.501 479.311C133.152 480.604 134.052 481.501 135.199 482.022C136.346 482.542 137.623 482.637 139.024 482.315L133.812 472.028C133.088 472.726 132.561 473.482 132.233 474.279C131.906 475.075 131.759 475.908 131.797 476.761C131.844 477.618 132.077 478.469 132.501 479.311Z" fill="white" fill-opacity="0.2"/>
<path d="M140.317 449.489C140.84 451.407 140.969 453.192 140.697 454.856C140.425 456.519 139.788 457.928 138.78 459.093C137.772 460.259 136.475 461.06 134.883 461.506L133.223 455.41C133.881 455.192 134.402 454.854 134.776 454.398C135.15 453.943 135.361 453.394 135.412 452.766C135.463 452.138 135.393 451.445 135.191 450.708C135.03 450.105 134.794 449.585 134.498 449.145C134.195 448.708 133.831 448.376 133.394 448.162C132.956 447.948 132.504 447.903 132.03 448.036C131.331 448.233 130.918 448.752 130.787 449.587C130.656 450.421 130.664 451.625 130.822 453.177C130.941 454.164 131.014 454.977 131.039 455.632C131.063 456.288 131.022 457.085 130.9 458.028C130.777 458.972 130.563 459.755 130.257 460.378C129.944 461.004 129.45 461.618 128.77 462.205C128.093 462.799 127.232 463.237 126.2 463.531C124.081 464.129 122.11 463.758 120.305 462.42C118.493 461.085 117.215 459.019 116.448 456.231C115.689 453.44 115.765 451.003 116.689 448.909C117.605 446.816 119.202 445.455 121.462 444.821L123.088 450.781C121.302 451.282 120.726 452.697 121.355 455.012C121.622 455.987 122.023 456.686 122.561 457.118C123.099 457.55 123.703 457.676 124.379 457.486C124.658 457.406 124.898 457.252 125.092 457.035C125.284 456.81 125.421 456.569 125.504 456.318C125.587 456.068 125.624 455.694 125.632 455.201C125.632 454.709 125.616 454.301 125.589 453.965C125.563 453.637 125.511 453.137 125.453 452.484C125.419 451.909 125.385 451.497 125.371 451.26C125.347 451.018 125.323 450.612 125.289 450.037C125.255 449.462 125.247 449.025 125.273 448.724C125.298 448.423 125.325 448.018 125.367 447.497C125.408 446.975 125.486 446.571 125.598 446.277C125.71 445.983 125.851 445.619 125.998 445.194C126.153 444.765 126.355 444.408 126.612 444.119C126.861 443.833 127.141 443.537 127.455 443.239C127.765 442.933 128.144 442.684 128.603 442.477C129.063 442.27 129.55 442.098 130.085 441.945C132.406 441.291 134.494 441.66 136.364 443.046C138.189 444.42 139.519 446.573 140.317 449.489Z" fill="white" fill-opacity="0.2"/>
<path d="M135.642 429.22C135.774 431.199 135.546 432.973 134.959 434.543C134.371 436.113 133.463 437.355 132.246 438.283C131.029 439.21 129.594 439.735 127.946 439.845L127.517 433.552C128.213 433.477 128.785 433.253 129.243 432.875C129.694 432.5 130.015 432.011 130.191 431.406C130.367 430.8 130.432 430.109 130.38 429.343C130.34 428.72 130.211 428.168 130.007 427.674C129.795 427.182 129.503 426.785 129.115 426.487C128.735 426.187 128.295 426.051 127.8 426.088C127.071 426.138 126.567 426.556 126.271 427.347C125.975 428.137 125.746 429.309 125.593 430.862C125.519 431.848 125.424 432.661 125.326 433.302C125.222 433.945 125.023 434.722 124.722 435.608C124.417 436.504 124.058 437.228 123.628 437.777C123.198 438.326 122.59 438.82 121.804 439.258C121.019 439.696 120.093 439.956 119.015 440.023C116.813 440.171 114.955 439.412 113.445 437.733C111.936 436.055 111.078 433.775 110.88 430.898C110.682 428.021 111.241 425.652 112.56 423.798C113.871 421.947 115.705 420.935 118.048 420.776L118.468 426.935C116.613 427.059 115.768 428.315 115.928 430.714C115.994 431.716 116.249 432.486 116.695 433.024C117.14 433.561 117.705 433.803 118.4 433.755C118.689 433.732 118.956 433.638 119.186 433.454C119.419 433.277 119.608 433.07 119.732 432.842C119.863 432.611 119.974 432.258 120.076 431.77C120.173 431.292 120.241 430.884 120.275 430.556C120.308 430.227 120.367 429.735 120.434 429.078C120.512 428.512 120.565 428.109 120.591 427.868C120.618 427.627 120.671 427.224 120.749 426.658C120.827 426.091 120.906 425.663 120.984 425.371C121.066 425.088 121.179 424.69 121.32 424.19C121.461 423.69 121.613 423.307 121.785 423.046C121.958 422.785 122.16 422.454 122.396 422.07C122.632 421.685 122.9 421.377 123.21 421.15C123.512 420.925 123.845 420.69 124.214 420.462C124.572 420.227 125.001 420.057 125.493 419.953C125.985 419.848 126.502 419.77 127.048 419.734C129.458 419.571 131.433 420.354 132.995 422.093C134.551 423.843 135.436 426.209 135.642 429.22Z" fill="white" fill-opacity="0.2"/>
<path d="M172.542 331.738C172.284 334.544 170.887 337.049 168.361 339.234C165.837 341.426 163.166 342.443 160.346 342.285C157.534 342.125 155.082 340.835 152.996 338.414L144.039 328.016L148.867 323.828L157.333 333.663C158.444 334.954 159.625 335.686 160.869 335.86C162.124 336.039 163.3 335.644 164.416 334.679C165.532 333.714 166.088 332.591 166.098 331.324C166.108 330.056 165.554 328.778 164.443 327.486L155.977 317.652L160.805 313.464L169.763 323.862C171.882 326.307 172.799 328.932 172.542 331.738Z" fill="white" fill-opacity="0.2"/>
<path d="M186.26 317.938L188.788 316.517L191.649 321.451L187.706 323.673C186.194 324.519 184.717 324.965 183.275 325.011C181.825 325.058 180.49 324.689 179.26 323.923C178.03 323.157 176.979 322.013 176.098 320.488L171.04 311.761L167.284 313.874L166.599 312.694L169.803 299.468L170.835 298.888L173.941 304.24L179.649 301.026L182.224 305.464L176.63 308.609L181.271 316.616C181.842 317.602 182.56 318.212 183.423 318.446C184.294 318.679 185.234 318.508 186.26 317.938Z" fill="white" fill-opacity="0.2"/>
<path d="M183.533 295.035L181.164 289.622L187.386 287.327L189.756 292.739L183.533 295.035ZM194.192 319.385L184.787 297.896L191.01 295.601L200.415 317.09L194.192 319.385Z" fill="white" fill-opacity="0.2"/>
<path d="M204.594 314.604L195.077 284.391L201.6 282.737L211.117 312.95L204.594 314.604Z" fill="white" fill-opacity="0.2"/>
<path d="M210.444 285.223L209.338 279.471L215.908 278.424L217.014 284.177L210.444 285.223ZM215.409 311.102L211.027 288.27L217.597 287.223L221.978 310.055L215.409 311.102Z" fill="white" fill-opacity="0.2"/>
<path d="M237.805 302.375L240.745 302.254L241.024 307.894L236.439 308.081C234.692 308.154 233.154 307.885 231.826 307.274C230.505 306.662 229.465 305.745 228.721 304.512C227.976 303.278 227.559 301.803 227.473 300.067L226.982 290.092L222.619 290.271L222.555 288.925L231.59 278.686L232.791 278.635L233.094 284.748L239.724 284.474L239.975 289.548L233.482 289.815L233.931 298.968C233.985 300.098 234.35 300.957 235.016 301.549C235.687 302.155 236.614 302.431 237.805 302.375Z" fill="white" fill-opacity="0.2"/>
<path d="M263.062 285.661L269.805 286.643L256.346 308.447C254.451 311.498 252.658 313.574 250.981 314.661C249.296 315.751 247.173 316.113 244.609 315.74L242.018 315.358L242.822 309.591L245.031 309.913C246.531 310.134 247.635 310.008 248.348 309.551C249.058 309.086 249.917 308.009 250.921 306.311L251.031 306.148L244.18 282.898L251.055 283.898L255.248 299.32L263.062 285.661Z" fill="white" fill-opacity="0.2"/>
<path d="M279.804 302.935L282.485 297.348L302.87 307.355L300.19 312.942L279.804 302.935Z" fill="white" fill-opacity="0.2"/>
<path d="M322.732 339.014C319.932 338.954 317.347 337.74 314.975 335.362C312.604 332.985 311.39 330.379 311.326 327.541C311.261 324.702 312.347 322.152 314.58 319.882L324.183 310.147L328.717 314.694L319.638 323.905C318.445 325.111 317.814 326.345 317.737 327.619C317.66 328.893 318.146 330.041 319.187 331.091C320.235 332.139 321.385 332.616 322.641 332.537C323.895 332.451 325.119 331.808 326.311 330.603L335.389 321.384L339.923 325.931L330.32 335.666C328.068 337.959 325.541 339.071 322.732 339.014Z" fill="white" fill-opacity="0.2"/>
<path d="M354.257 342.991C356.101 346.075 356.634 349.258 355.849 352.542C355.064 355.826 353.152 358.41 350.108 360.302C347.063 362.195 343.927 362.747 340.687 361.952C337.448 361.158 334.908 359.235 333.079 356.172C331.825 354.073 331.248 351.843 331.366 349.487L323.056 354.661L319.74 349.125L347 332.16L349.203 335.837L347.954 337.915C350.63 338.743 352.728 340.436 354.257 342.991ZM337.09 347.559C336.682 349.249 336.955 350.903 337.915 352.51C338.874 354.118 340.197 355.127 341.868 355.542C343.54 355.958 345.172 355.67 346.752 354.692C347.792 354.042 348.584 353.22 349.136 352.217C349.687 351.214 349.947 350.14 349.91 349.005C349.87 347.863 349.539 346.762 348.902 345.707C348.265 344.651 347.456 343.832 346.472 343.266C345.488 342.701 344.43 342.443 343.316 342.497C342.195 342.553 341.114 342.906 340.08 343.546C338.5 344.523 337.502 345.858 337.09 347.559Z" fill="white" fill-opacity="0.2"/>
<path d="M341.606 368.471L370.825 356.052L373.083 362.414L343.864 374.833L341.606 368.471Z" fill="white" fill-opacity="0.2"/>
<path d="M346.256 378.896L368.402 372.106L370.054 378.765L347.908 385.554L346.256 378.896ZM371.357 371.199L376.933 369.489L378.585 376.147L373.009 377.858L371.357 371.199Z" fill="white" fill-opacity="0.2"/>
<path d="M359.218 417.66L359.457 420.387L353.585 420.896L353.272 417.334C353.019 414.431 353.672 412.038 355.231 410.166C356.788 408.285 359.007 407.224 361.878 406.978L370.357 406.245L369.44 395.69L351.524 397.234L350.963 390.81L368.879 389.267L368.521 385.127L373.784 384.674L374.146 388.855L376.274 388.671C378.566 388.47 380.423 388.964 381.841 390.145C383.259 391.326 384.074 393.126 384.283 395.563L384.702 400.36L379.703 400.79L379.394 397.27C379.243 395.535 378.327 394.744 376.645 394.889L374.688 395.053L375.628 405.79L382.499 405.197L383.06 411.621L376.189 412.213L376.772 418.896L371.509 419.35L370.926 412.667L362.793 413.367C361.515 413.479 360.577 413.895 359.967 414.628C359.349 415.363 359.105 416.375 359.218 417.66Z" fill="white" fill-opacity="0.2"/>
</g>
</svg>
