<svg width="268" height="92" viewBox="0 0 268 92" fill="none" xmlns="http://www.w3.org/2000/svg">
<path d="M0 3.5054C7.00692 3.5054 9.97364 8.43529 13.1225 13.7262L38.9122 58.3643C40.1288 60.5897 41.3259 63.2811 41.2933 65.8018C41.1958 72.3662 32.751 74.7688 27.6959 74.992C24.0269 75.1187 20.3801 74.3697 17.0521 72.806L14.9962 75.4909C16.1933 80.6374 20.9167 86.8933 27.4096 86.8408C38.6845 86.762 44.6049 76.3377 49.133 67.8827L57.5257 52.1872L33.1804 10.0304C30.9293 6.26246 34.6247 3.51853 38.5543 3.46602L39.4261 0H0.897823L0 3.5054Z" fill="#1E4391"/>
<path d="M142.201 20.5857H145.33C146.976 20.5857 147.627 18.7674 147.627 17.5529C147.627 16.3385 146.937 14.809 145.272 14.809H142.194V20.5857H142.201ZM138.479 23.7235V5.55322H142.201V11.7106H144.803C149.169 11.7106 151.485 14.402 151.446 17.4939C151.407 20.5857 149.247 23.7235 144.849 23.7235H138.44H138.479Z" fill="#1E4391"/>
<path d="M255.965 32.8936C257.325 33.916 258.976 34.4683 260.672 34.4683C262.368 34.4683 264.019 33.916 265.379 32.8936L263.883 30.6748C262.958 31.3803 261.831 31.7621 260.672 31.7621C259.513 31.7621 258.386 31.3803 257.461 30.6748L255.965 32.8936ZM268.001 54.3591V36.2677H264.351L256.986 48.5759V36.2677H253.369V54.3591H256.986L264.338 42.0837V54.3591H267.988H268.001Z" fill="#1E4391"/>
<path d="M138.336 41.3941V43.6457H132.78V41.6764C132.78 40.0616 134.16 39.1426 135.76 39.1426C136.742 39.1426 138.362 39.799 138.362 41.4204L138.336 41.3941ZM142.481 52.2517L140.913 49.4093C139.533 50.6377 137.768 51.3351 135.929 51.3786C134.147 51.3786 132.767 50.3874 132.767 48.4377V46.7441H142.084V42.3328C142.084 37.7378 139.202 35.9785 135.747 35.9785C131.778 35.9785 129.007 38.0332 129.007 42.5429V48.5756C129.007 52.6127 131.609 54.6411 135.636 54.6411C138.577 54.6477 140.386 53.6827 142.481 52.2517Z" fill="#1E4391"/>
<path d="M127.738 81.9437H130.867C132.513 81.9437 133.164 80.6308 133.164 79.4033C133.184 79.0899 133.137 78.7757 133.025 78.4828C132.912 78.1899 132.738 77.9254 132.513 77.7077C132.289 77.49 132.02 77.3245 131.725 77.2228C131.431 77.1211 131.118 77.0856 130.808 77.1189H127.731V81.9371L127.738 81.9437ZM127.738 70.1278V74.0336H130.418C130.675 74.0597 130.934 74.0275 131.177 73.9394C131.42 73.8513 131.64 73.7096 131.821 73.5246C132.003 73.3396 132.141 73.116 132.226 72.8701C132.311 72.6243 132.34 72.3624 132.311 72.1037C132.325 71.8515 132.287 71.5992 132.201 71.3621C132.115 71.1249 131.982 70.9078 131.811 70.7238C131.639 70.5398 131.433 70.3927 131.203 70.2914C130.974 70.1901 130.727 70.1367 130.477 70.1344H127.738V70.1278ZM124.016 85.0749V66.9966H130.418C134.816 66.9966 136.195 69.7011 136.13 71.7689C136.143 72.5196 135.944 73.2585 135.557 73.8998C135.17 74.5412 134.611 75.0587 133.944 75.3924C134.839 75.6932 135.615 76.2731 136.161 77.0484C136.707 77.8237 136.995 78.7541 136.983 79.7052C136.983 82.331 135.07 85.088 130.665 85.088H124.01L124.016 85.0749Z" fill="#1E4391"/>
<path d="M235.358 66.9966V70.095H239.893L239.887 85.1274H240.127H243.536H243.771V70.095H248.299V66.9966H235.358Z" fill="#1E4391"/>
<path d="M207.104 2.21875C208.464 3.24117 210.115 3.79343 211.811 3.79343C213.507 3.79343 215.158 3.24117 216.518 2.21875L215.022 0C214.098 0.705514 212.97 1.08728 211.811 1.08728C210.652 1.08728 209.525 0.705514 208.601 0L207.104 2.21875ZM219.14 23.6842V5.59283H215.49L208.1 17.9273V5.59283H204.482V23.6842H208.132L215.484 11.4089V23.6842H219.134H219.14Z" fill="#1E4391"/>
<path d="M97.3363 18.0722C97.3363 19.6477 95.7749 20.6061 94.3566 20.6061C93.2036 20.5767 92.0799 20.2343 91.1036 19.6149V9.84703C92.0873 9.02752 93.3154 8.56517 94.5908 8.53415C94.9437 8.52011 95.2958 8.57728 95.6265 8.70229C95.9573 8.8273 96.26 9.01765 96.5169 9.26219C96.7738 9.50672 96.9797 9.80053 97.1226 10.1264C97.2656 10.4523 97.3426 10.8036 97.3493 11.1599V18.0722H97.3363ZM101.097 17.6784V11.4356C101.097 7.49698 99.0148 5.26508 95.1568 5.26508C93.6995 5.26508 91.1947 5.85588 90.1732 6.69612C89.8973 6.05414 89.3939 5.53915 88.7614 5.25195L86.4648 7.39195C87.3366 7.98274 87.3627 9.13808 87.3627 9.6501V29.5402H91.0841V23.1859C92.2834 23.6854 93.5666 23.9483 94.864 23.9605C98.3577 23.9671 101.097 21.7549 101.097 17.6784Z" fill="#1E4391"/>
<path d="M112.963 19.5226C112.505 20.0468 111.918 20.4399 111.261 20.6623C110.604 20.8847 109.901 20.9286 109.222 20.7896C108.73 20.6727 108.289 20.3951 107.969 19.9998C107.649 19.6046 107.468 19.1138 107.452 18.6036C107.429 18.2316 107.484 17.8587 107.614 17.5098C107.744 17.1609 107.946 16.8439 108.207 16.58C108.468 16.316 108.782 16.1112 109.127 15.9791C109.473 15.847 109.842 15.7906 110.211 15.8138H112.963V19.5292V19.5226ZM134.673 23.6845V5.5536H122.39V16.7787C122.39 19.0631 120.978 20.9668 119.007 21.0193C118.09 21.0193 116.691 20.4285 116.691 19.05V11.3959C116.691 7.64765 114.739 5.26477 110.536 5.26477C108.21 5.22045 105.96 6.10522 104.278 7.72642L106.229 10.1618C107.298 9.1609 108.678 8.5647 110.133 8.47476C111.369 8.47476 112.93 9.02617 112.93 10.7132V12.6432H109.879C105.514 12.6432 103.686 15.4396 103.686 18.3804C103.686 21.2097 105.221 23.9667 109.625 23.9667C111.17 23.9028 112.641 23.2862 113.776 22.2272C114.475 22.8979 115.308 23.4106 116.219 23.7309C117.13 24.0513 118.098 24.1719 119.059 24.0849C123.294 23.9536 126.014 21.6495 125.903 16.6606V8.652H131.024V23.6845H134.673Z" fill="#1E4391"/>
<path d="M183.942 23.6972L177.274 14.1263L183.506 5.59261H179.265L174.6 12.6887H172.31V5.55322H168.653V23.6972H172.238L172.271 15.7871H174.541L179.687 23.6972H183.942Z" fill="#1E4391"/>
<path d="M166.281 21.6624L164.752 18.9316C162.637 20.4348 161.369 20.9009 160.308 20.9009C158.818 20.9009 157.329 20.1263 157.329 18.5509V11.481C157.329 9.86616 158.812 8.72395 160.523 8.72395C161.937 8.83777 163.253 9.49588 164.199 10.562L166.151 8.0872C165.432 7.17472 164.51 6.44641 163.46 5.96159C162.41 5.47678 161.261 5.24918 160.107 5.29734C156.431 5.29734 153.601 7.57518 153.601 11.5007V18.3014C153.601 22.1547 156.554 23.9665 160.191 23.9665C162.438 23.953 164.606 23.1314 166.307 21.6492" fill="#1E4391"/>
<path d="M200.708 23.6842V5.59277H197.058L189.667 17.9273V5.59277H186.057V23.6842H189.667H189.706L197.058 11.4088V23.6842H200.708Z" fill="#1E4391"/>
<path d="M86.3678 0H82.204L78.9836 10.7852C78.925 10.9822 78.847 11.1988 78.8014 11.4417C78.7559 11.6846 78.7103 11.8355 78.6908 11.9865C78.6713 12.1375 78.6518 12.2163 78.6518 12.2228C78.6518 12.2294 78.6518 12.1441 78.6127 11.9997C78.5737 11.8552 78.5477 11.678 78.5021 11.4679C78.4609 11.2569 78.3999 11.0503 78.32 10.8509L73.5641 0H69.3223L76.9342 16.877L76.4528 18.0979C75.8412 19.4502 74.2408 20.9403 71.3651 21.065L71.8205 23.9927C76.0364 24.0846 78.8144 22.1941 79.8944 19.0301L86.3678 0Z" fill="#1E4391"/>
<path d="M249.569 36.2686H245.919V54.36H249.569V36.2686Z" fill="#1E4391"/>
<path d="M234.63 51.301H237.759C239.405 51.301 240.056 49.4827 240.056 48.2683C240.056 47.0539 239.366 45.5243 237.7 45.5243H234.623V51.301H234.63ZM230.908 54.4388V36.2686H234.63V42.426H237.232C241.598 42.426 243.914 45.1174 243.875 48.2092C243.836 51.301 241.676 54.4388 237.278 54.4388H230.869H230.908Z" fill="#1E4391"/>
<path d="M86.6473 48.7534C86.6447 49.1034 86.5709 49.4492 86.4306 49.7693C86.2903 50.0895 86.0864 50.3771 85.8315 50.6146C85.5766 50.8521 85.2762 51.0343 84.9488 51.15C84.6213 51.2657 84.2739 51.3124 83.9279 51.2873C83.5121 51.3302 83.0925 51.2611 82.7119 51.087C82.3313 50.9128 82.0033 50.6399 81.7614 50.2961V40.8827V40.4954C82.0509 40.1423 82.415 39.8589 82.8269 39.6658C83.2389 39.4728 83.6884 39.3749 84.1426 39.3795C84.4807 39.3712 84.8167 39.4344 85.1291 39.5652C85.4415 39.696 85.7232 39.8914 85.9562 40.1388C86.1891 40.3862 86.3681 40.6801 86.4815 41.0016C86.595 41.3231 86.6404 41.665 86.6148 42.0052V48.7534H86.6473ZM78.0725 40.3444V40.5676V50.2961C77.8306 50.6399 77.5026 50.9128 77.122 51.087C76.7414 51.2611 76.3218 51.3302 75.906 51.2873C75.5621 51.3087 75.2175 51.2592 74.8931 51.1418C74.5688 51.0244 74.2715 50.8416 74.0195 50.6045C73.7675 50.3674 73.566 50.081 73.4272 49.7628C73.2885 49.4445 73.2155 49.1011 73.2126 48.7534V41.8346C73.187 41.4937 73.2325 41.1513 73.3464 40.8293C73.4602 40.5074 73.6397 40.2131 73.8734 39.9656C74.107 39.7181 74.3896 39.5229 74.7027 39.3925C75.0159 39.2621 75.3527 39.1995 75.6913 39.2088C76.1472 39.2062 76.5978 39.3068 77.0099 39.5034C77.4221 39.6999 77.7852 39.9874 78.0725 40.3444ZM90.4338 48.3661V42.1168C90.4338 38.1782 88.6382 35.9463 84.7801 35.9463C83.7414 35.9468 82.72 36.2158 81.8134 36.7275V33.314H78.0725V36.7275C77.1657 36.2163 76.1445 35.9474 75.1058 35.9463C71.2478 35.9463 69.4521 38.1847 69.4521 42.1168V48.3596C69.4521 52.4361 71.9049 54.6483 75.3986 54.6483C76.3411 54.621 77.2613 54.3522 78.0725 53.8671V60.1952H81.7939V53.8671C82.6058 54.3496 83.5259 54.6162 84.4679 54.6417C87.9615 54.6483 90.4338 52.4361 90.4338 48.3596V48.3661Z" fill="#1E4391"/>
<path d="M102.946 41.3941V43.6457H97.3897V41.6764C97.3897 40.0616 98.7689 39.1426 100.369 39.1426C101.352 39.1426 102.972 39.799 102.972 41.4204L102.946 41.3941ZM107.129 52.2779L105.561 49.4355C104.182 50.6639 102.417 51.3614 100.578 51.4048C98.7949 51.4048 97.4157 50.4136 97.4157 48.464V46.7441H106.7V42.3328C106.7 37.7378 103.818 35.9785 100.356 35.9785C96.3877 35.9785 93.6162 38.0332 93.6162 42.5429V48.5756C93.6162 52.6127 96.2186 54.6411 100.246 54.6411C103.206 54.6477 104.989 53.6827 107.103 52.2517L107.129 52.2779Z" fill="#1E4391"/>
<path d="M114.388 51.3069C115.305 50.296 115.878 48.366 115.832 46.3967V39.3859H120.952V51.3069H114.388ZM124.602 51.3069V36.2744H112.286V46.272C112.286 48.5498 110.985 51.2544 108.988 51.3069H108.649V58.7969H112.195V54.4118H123.002V58.8034H126.645V51.3069H124.602Z" fill="#1E4391"/>
<path d="M227.135 54.36V36.2686H223.479V43.3384H216.095V36.2686H212.478V54.36H216.095V46.4368H223.479V54.36H227.135Z" fill="#1E4391"/>
<path d="M155.615 48.7856C155.615 50.3611 154.054 51.3195 152.636 51.3195C151.483 51.2901 150.359 50.9477 149.383 50.3283V40.5867C150.367 39.7677 151.594 39.3054 152.87 39.2738C153.223 39.2598 153.575 39.317 153.905 39.442C154.236 39.567 154.539 39.7573 154.796 40.0019C155.053 40.2464 155.259 40.5402 155.402 40.8661C155.545 41.1919 155.622 41.5433 155.628 41.8996V48.7856H155.615ZM159.376 48.3918V42.149C159.376 38.2104 157.294 35.9785 153.436 35.9785C151.978 35.9785 149.474 36.5693 148.452 37.4096C148.169 36.7763 147.664 36.2711 147.034 35.9916L144.737 38.1316C145.609 38.7224 145.642 39.8778 145.642 40.3898V60.2274H149.363V53.9059C150.562 54.4052 151.846 54.6681 153.143 54.6805C156.637 54.6805 159.395 52.4748 159.395 48.3984L159.376 48.3918Z" fill="#1E4391"/>
<path d="M171.243 50.2443C169.871 52.0363 165.785 52.2661 165.733 49.3252C165.708 48.9515 165.762 48.5767 165.893 48.226C166.023 47.8753 166.227 47.5568 166.489 47.2919C166.752 47.0271 167.067 46.8219 167.415 46.6903C167.762 46.5587 168.134 46.5036 168.504 46.5288H171.256V50.2443H171.243ZM192.98 54.4061V36.2687H180.67V47.5003C180.67 49.7848 179.259 51.6884 177.287 51.7409C176.37 51.7409 174.971 51.1501 174.971 49.7716V42.1175C174.971 38.3693 173.019 35.9864 168.817 35.9864C166.49 35.9428 164.241 36.8275 162.558 38.448L164.51 40.8834C165.578 39.8825 166.958 39.2863 168.413 39.1964C169.649 39.1964 171.211 39.7478 171.211 41.4348V43.3648H168.159C163.794 43.3648 161.966 46.1612 161.966 49.1021C161.966 51.9313 163.501 54.6883 167.906 54.6883C169.45 54.6244 170.922 54.0078 172.057 52.9488C172.756 53.6192 173.589 54.1316 174.5 54.4519C175.41 54.7722 176.379 54.8931 177.339 54.8065C181.575 54.6687 184.294 52.3646 184.184 47.3822V39.3868H189.323V54.4192H192.967L192.98 54.4061Z" fill="#1E4391"/>
<path d="M200.48 51.301H203.635C205.281 51.301 205.931 49.4827 205.931 48.2683C205.931 47.0539 205.242 45.5243 203.576 45.5243H200.499V51.301H200.48ZM196.758 54.4388V36.2686H200.48V42.426H203.082C207.454 42.426 209.763 45.1174 209.731 48.2092C209.698 51.301 207.532 54.4388 203.134 54.4388H196.726H196.758Z" fill="#1E4391"/>
<path d="M84.8257 66.9963H80.7725L77.1031 81.0573C77.0928 80.1843 76.9569 79.3175 76.6998 78.484L73.5769 66.9897L69.4521 67.0291C69.4521 67.0291 74.26 82.357 75.3856 85.0418C74.8326 87.4116 73.5509 88.9805 70.8314 89.2496L71.1827 92.0001C75.3075 92.0001 77.6496 89.7551 78.5019 86.9915L84.8257 66.9963Z" fill="#1E4391"/>
<path d="M101.812 85.088V66.9966H98.1617V74.0599H90.771V66.9966H87.1602V85.088H90.771V77.1648H98.1617V85.088H101.812Z" fill="#1E4391"/>
<path d="M120.236 85.088V66.9966H116.586L109.196 79.3311V66.9966H105.585V85.088H109.196H109.235L116.586 72.8126V85.088H120.236Z" fill="#1E4391"/>
<path d="M205.583 66.9966V70.095H210.111V85.1274H210.345H213.754H213.989V70.095H218.523V66.9966H205.583Z" fill="#1E4391"/>
<path d="M202.875 85.088V66.9966H199.225L191.834 79.3311V66.9966H188.224V85.088H191.834H191.873L199.225 72.8126V85.088H202.875Z" fill="#1E4391"/>
<path d="M166.155 79.4757C166.155 81.0512 164.594 82.0096 163.176 82.0096C162.023 81.9802 160.899 81.6378 159.923 81.0183V71.2702C160.906 70.4507 162.134 69.9883 163.41 69.9573C163.763 69.9433 164.115 70.0005 164.446 70.1255C164.776 70.2505 165.079 70.4408 165.336 70.6854C165.593 70.9299 165.799 71.2237 165.942 71.5496C166.085 71.8754 166.162 72.2268 166.168 72.5831V79.502L166.155 79.4757ZM169.916 79.0818V72.8654C169.916 68.9267 167.834 66.6948 163.976 66.6948C162.518 66.6948 160.014 67.2856 158.992 68.1259C158.711 67.4898 158.206 66.982 157.574 66.7014L155.277 68.8414C156.149 69.4322 156.175 70.5875 156.175 71.0995V90.9175H159.903V84.5959C161.102 85.0954 162.386 85.3583 163.683 85.3705C167.203 85.3377 169.916 83.1583 169.916 79.0818Z" fill="#1E4391"/>
<path d="M185.842 83.0128L184.313 80.2821C182.199 81.7853 180.93 82.2514 179.876 82.2514C178.386 82.2514 176.896 81.4768 176.896 79.9013V72.8643C176.896 71.2495 178.386 70.1073 180.097 70.1073C181.511 70.2217 182.827 70.8797 183.773 71.9453L185.725 69.4705C185.006 68.558 184.084 67.8297 183.034 67.3449C181.984 66.8601 180.835 66.6325 179.681 66.6806C176.005 66.6806 173.175 68.9585 173.175 72.884V79.6781C173.175 83.5314 176.129 85.3432 179.772 85.3432C182.019 85.3298 184.187 84.5081 185.887 83.026" fill="#1E4391"/>
<path d="M229.744 72.0776V74.3292H224.187V72.3599C224.187 70.7451 225.567 69.826 227.167 69.826C228.15 69.826 229.77 70.4825 229.77 72.1039L229.744 72.0776ZM233.927 82.9614L232.326 80.0862C230.947 81.3146 229.182 82.0121 227.343 82.0555C225.56 82.0555 224.181 81.0643 224.181 79.1147V77.4604H233.497V73.0492C233.497 68.4541 230.615 66.6948 227.154 66.6948C223.186 66.6948 220.414 68.7495 220.414 73.2592V79.2853C220.414 83.3225 223.016 85.3509 227.044 85.3509C230.004 85.3377 231.786 84.3662 233.901 82.9352L233.927 82.9614Z" fill="#1E4391"/>
<path d="M148.986 72.0776V74.3292H143.43V72.3599C143.43 70.7451 144.81 69.826 146.41 69.826C147.392 69.826 149.012 70.4825 149.012 72.1039L148.986 72.0776ZM153.17 82.9614L151.537 80.0862C150.157 81.3146 148.392 82.0121 146.553 82.0555C144.771 82.0555 143.391 81.0643 143.391 79.1147V77.4604H152.708V73.0492C152.708 68.4541 149.826 66.6948 146.371 66.6948C142.402 66.6948 139.631 68.7495 139.631 73.2592V79.2853C139.631 83.3225 142.233 85.3509 146.26 85.3509C149.214 85.3377 150.997 84.3662 153.111 82.9352L153.17 82.9614Z" fill="#1E4391"/>
</svg>
