<svg width="56" height="55" viewBox="0 0 56 55" fill="none" xmlns="http://www.w3.org/2000/svg">
<path d="M20.8965 25.7815C30.3889 25.7815 38.084 22.3187 38.084 18.0471C38.084 13.7755 30.3889 10.3127 20.8965 10.3127C11.4041 10.3127 3.70898 13.7755 3.70898 18.0471C3.70898 22.3187 11.4041 25.7815 20.8965 25.7815Z" stroke="#222222" stroke-width="2" stroke-linecap="round" stroke-linejoin="round"/>
<path d="M3.70898 18.0471V26.6409C3.70898 30.9163 11.4004 34.3752 20.8965 34.3752C30.3926 34.3752 38.084 30.9163 38.084 26.6409V18.0471" stroke="#222222" stroke-width="2" stroke-linecap="round" stroke-linejoin="round"/>
<path d="M14.0215 25.137V33.7307" stroke="#222222" stroke-width="2" stroke-linecap="round" stroke-linejoin="round"/>
<path d="M38.084 20.7756C45.9258 21.5061 51.834 24.6213 51.834 28.3596C51.834 32.635 44.1426 36.094 34.6465 36.094C30.4355 36.094 26.5684 35.4065 23.582 34.2893" stroke="#222222" stroke-width="2" stroke-linecap="round" stroke-linejoin="round"/>
<path d="M17.459 34.2249V36.9534C17.459 41.2288 25.1504 44.6877 34.6465 44.6877C44.1426 44.6877 51.834 41.2288 51.834 36.9534V28.3596" stroke="#222222" stroke-width="2" stroke-linecap="round" stroke-linejoin="round"/>
<path d="M41.5215 35.4495V44.0432" stroke="#222222" stroke-width="2" stroke-linecap="round" stroke-linejoin="round"/>
<path d="M27.7715 25.137V44.0432" stroke="#222222" stroke-width="2" stroke-linecap="round" stroke-linejoin="round"/>
</svg>
