<svg width="14" height="16" viewBox="0 0 14 16" fill="none" xmlns="http://www.w3.org/2000/svg">
<path d="M1 9L3.65584e-07 9L2.18557e-07 7L1 7L1 9ZM13 8L13.7071 7.29289C14.0976 7.68342 14.0976 8.31658 13.7071 8.70711L13 8ZM7.70711 14.7071L7 15.4142L5.58579 14L6.29289 13.2929L7.70711 14.7071ZM6.29289 2.70711L5.58579 2L7 0.585786L7.70711 1.29289L6.29289 2.70711ZM1 7L13 7L13 9L1 9L1 7ZM6.29289 13.2929L12.2929 7.29289L13.7071 8.70711L7.70711 14.7071L6.29289 13.2929ZM12.2929 8.70711L6.29289 2.70711L7.70711 1.29289L13.7071 7.29289L12.2929 8.70711Z" fill="#1E4391"/>
</svg>
