<svg width="55" height="55" viewBox="0 0 55 55" fill="none" xmlns="http://www.w3.org/2000/svg">
<path d="M29.7989 37.7051L25.6739 48.8985C25.5518 49.2274 25.3319 49.5111 25.0439 49.7114C24.7559 49.9118 24.4134 50.0191 24.0625 50.0191C23.7117 50.0191 23.3692 49.9118 23.0812 49.7114C22.7931 49.5111 22.5733 49.2274 22.4512 48.8985L18.3262 37.7051C18.2392 37.4689 18.1019 37.2543 17.9238 37.0763C17.7458 36.8982 17.5312 36.7609 17.295 36.6739L6.10161 32.5489C5.77268 32.4268 5.48899 32.2069 5.28866 31.9189C5.08833 31.6309 4.98096 31.2884 4.98096 30.9375C4.98096 30.5867 5.08833 30.2442 5.28866 29.9562C5.48899 29.6681 5.77268 29.4483 6.10161 29.3262L17.295 25.2012C17.5312 25.1142 17.7458 24.9769 17.9238 24.7988C18.1019 24.6208 18.2392 24.4062 18.3262 24.17L22.4512 12.9766C22.5733 12.6477 22.7931 12.364 23.0812 12.1637C23.3692 11.9633 23.7117 11.856 24.0625 11.856C24.4134 11.856 24.7559 11.9633 25.0439 12.1637C25.3319 12.364 25.5518 12.6477 25.6739 12.9766L29.7989 24.17C29.8859 24.4062 30.0232 24.6208 30.2013 24.7988C30.3793 24.9769 30.5939 25.1142 30.8301 25.2012L42.0235 29.3262C42.3524 29.4483 42.6361 29.6681 42.8364 29.9562C43.0368 30.2442 43.1441 30.5867 43.1441 30.9375C43.1441 31.2884 43.0368 31.6309 42.8364 31.9189C42.6361 32.2069 42.3524 32.4268 42.0235 32.5489L30.8301 36.6739C30.5939 36.7609 30.3793 36.8982 30.2013 37.0763C30.0232 37.2543 29.8859 37.4689 29.7989 37.7051V37.7051Z" stroke="#222222" stroke-width="2" stroke-linecap="round" stroke-linejoin="round"/>
<path d="M37.8125 3.4375V13.75" stroke="#222222" stroke-width="2" stroke-linecap="round" stroke-linejoin="round"/>
<path d="M42.9688 8.59375H32.6562" stroke="#222222" stroke-width="2" stroke-linecap="round" stroke-linejoin="round"/>
<path d="M48.125 15.4688V22.3438" stroke="#222222" stroke-width="2" stroke-linecap="round" stroke-linejoin="round"/>
<path d="M51.5625 18.9062H44.6875" stroke="#222222" stroke-width="2" stroke-linecap="round" stroke-linejoin="round"/>
</svg>
