<svg width="14" height="16" viewBox="0 0 14 16" fill="none" xmlns="http://www.w3.org/2000/svg">
<path d="M13 9L14 9L14 7L13 7L13 9ZM1 8L0.292894 7.29289C-0.0976307 7.68342 -0.0976308 8.31658 0.292894 8.70711L1 8ZM6.29289 14.7071L7 15.4142L8.41421 14L7.70711 13.2929L6.29289 14.7071ZM7.70711 2.70711L8.41421 2L7 0.585786L6.29289 1.29289L7.70711 2.70711ZM13 7L1 7L1 9L13 9L13 7ZM7.70711 13.2929L1.70711 7.29289L0.292894 8.70711L6.29289 14.7071L7.70711 13.2929ZM1.70711 8.70711L7.70711 2.70711L6.29289 1.29289L0.292894 7.29289L1.70711 8.70711Z" fill="#1E4391"/>
</svg>
