<svg width="28" height="27" viewBox="0 0 28 27" fill="none" xmlns="http://www.w3.org/2000/svg">
<path fill-rule="evenodd" clip-rule="evenodd" d="M0.962144 0.41702C1.56026 -0.156173 2.50979 -0.135971 3.08298 0.462144L13.7675 11.6112L24.9393 0.439342C25.5251 -0.146444 26.4749 -0.146444 27.0607 0.439342C27.6464 1.02513 27.6464 1.97488 27.0607 2.56066L15.8437 13.7776L26.083 24.4621C26.6562 25.0603 26.636 26.0098 26.0379 26.583C25.4397 27.1562 24.4902 27.136 23.917 26.5379L13.7219 15.8994L3.06066 26.5607C2.47488 27.1464 1.52513 27.1464 0.939342 26.5607C0.353556 25.9749 0.353556 25.0251 0.939342 24.4393L11.6457 13.733L0.91702 2.53786C0.343827 1.93975 0.364029 0.990213 0.962144 0.41702Z" fill="white"/>
</svg>
